<?xml version="1.0" encoding="UTF-8"?>
<svg id="Layer_2" xmlns="http://www.w3.org/2000/svg" viewBox="0 0 974 380">
  <g id="Layer_1-2" data-name="Layer_1">
    <g>
      <path d="M682,380c-.67-12.51-1.92-25.02-1.9-37.53.08-47.43.58-94.87.79-142.3,0-1.46-2.03-2.87-2.19-4.39-.33-3.17-1.14-8.48.21-9.2,3.28-1.74,2.01-3.97,2.01-5.86.09-57,.08-114,.08-171V3.33c3.61-.52,7.04-1.01,10.91-1.56v183.88h15.9V3.38c3.75-.56,7.18-1.07,11.06-1.65v183.89h15.88c2.27-14.45,3.48-28.97,1.28-43.63-.1-.65-.02-1.33-.02-2,0-44.83,0-89.67,0-134.5,0-.97.08-1.94.14-3.2h9.75v182.54c4.5.41,8.7.75,12.88,1.17,3.36.34,4.3-1.27,4.26-4.43-.13-10.5-.05-21-.05-31.5,0-47.17,0-94.33,0-141.5V2.33h9.85v182.53c5.64.52,10.97,1.01,16.89,1.55V2.35h10.97c.43,12.64,1.26,25.29,1.22,37.93-.13,40.27-.6,80.54-.92,120.8-.06,8.13,0,16.25,0,24.91,11.2,0,21.99.1,32.76-.15,1.1-.03,2.49-1.95,3.13-3.29.52-1.09.11-2.62.11-3.95,0-56.67,0-113.33,0-170V2.34h9.83v182.77c6.76.4,13.2.78,20.07,1.19V3.38c3.65-.57,6.98-1.1,10.9-1.72v184.01h20.06V2.38h11.07v183.37h19.9V2.3h11.07v183.35h19.91V2.4h9.92c2.29,14.18,3.48,28.54,1.33,43.03-.15.98-.06,2-.06,3,0,44.33-.01,88.67.03,133,0,2.02-1.17,5.11,2.97,4.57v10c-4.6-.44-2.94,3.08-2.94,5.07-.08,57.12-.06,114.23-.06,171.35v5.87c-1.49.64-2.75,1.17-4,1.71h-7v-183.64h-20v183.64h-11v-183.64h-20v183.64h-11v-183.64h-20v183.64h-10c-.67-10.5-1.53-20.99-1.91-31.5-.18-4.91.86-9.85.87-14.78.08-44.11.04-88.23.04-132.34v-5.16h-19.49c-3.88,30.55.47,61-.33,91.4-.82,30.77-.18,61.59-.18,92.38h-10v-183.89h-35.94v182.15c-1.55.66-2.81,1.2-4.06,1.74-2.33,0-4.67,0-7,0v-183.82h-16.48c-3.89,30.5.47,60.96-.34,91.36-.82,30.8-.18,61.64-.18,92.46h-10v-183.04c-5.54-.42-10.57-.81-16.42-1.26-3.95,31.05.41,61.51-.4,91.9-.82,30.78-.18,61.6-.18,92.4h-10v-183.15c-5.93-.37-11.27-.7-17-1.05v184.2h-10c-.67-10.51-1.53-21-1.91-31.52-.18-4.91.86-9.86.87-14.79.08-43.98.04-87.95.04-131.93v-5.42h-16v183.67h-10Z"/>
      <path d="M0,369h297.61v9.46c-1.11.47-2.36,1.01-3.61,1.54H0v-11Z"/>
      <path d="M0,316c5.58-.33,11.17-.95,16.75-.96,91.28-.06,182.57-.04,273.85-.04h6.11c.52,3.71.99,7.04,1.55,11H0C0,322.67,0,319.33,0,316Z"/>
      <path d="M0,343c5.58-.33,11.17-.95,16.75-.96,91.64-.06,183.27-.04,274.91-.04h6.1v10.64H1.59c-.51-1.48-1.05-3.06-1.59-4.64,0-1.67,0-3.33,0-5Z"/>
      <path d="M13,0v296.64H2V0h11Z"/>
      <path d="M76,0v296.64h-11V0h11Z"/>
      <path d="M139,0v296.64h-11V0h11Z"/>
      <path d="M44,0v296.64h-10V0h10Z"/>
      <path d="M107,0v296.64h-10V0h10Z"/>
      <path d="M390.19,375.13c-.84-7.23-3.54-13.89-1.34-21.06.52-1.68.15-3.64.15-5.47,0-112.64,0-225.27,0-337.91v-6.3c3.51-.57,6.83-1.11,11.29-1.83v272.38c.63.03,1.27.06,1.9.08,9.6-89.5,19.2-179,28.86-269.02,2.22,0,4.25-.37,6.09.08,2.98.73,5.53,2,3.97,6.11-.79,2.08-.86,4.46-1.09,6.72-1.34,13.06-2.65,26.12-3.95,39.19-1.37,13.72-2.56,27.47-4.11,41.17-1.33,11.7-3.11,23.35-4.6,35.03-.56,4.4-.89,8.83-1.35,13.24-1.31,12.56-2.67,25.12-3.93,37.69-1.08,10.79-1.95,21.6-3.09,32.38-1.54,14.51-3.35,28.98-4.87,43.49-.62,5.9-.47,11.89-1.16,17.78-1.62,13.65-3.52,27.26-5.35,40.88-.81,6-1.98,11.95-2.54,17.97-.88,9.51-1.94,19.06-1.85,28.58.05,5.75-2.41,7.6-7.23,8.19-1.77.22-3.54.37-5.79.6Z"/>
      <path d="M518.96,373.65c-3.4.55-6.28,1.02-10.25,1.66-.59-6.36-1.08-12.34-1.72-18.31-1.62-15.17-3.37-30.32-4.93-45.49-1.14-11.12-1.78-22.29-3.13-33.38-1.66-13.63-3.94-27.18-5.73-40.79-1.26-9.59-2.26-19.22-3.17-28.86-1.41-14.89-2.67-29.8-3.96-44.71-.42-4.93-.54-9.88-1.1-14.79-1.33-11.55-2.79-23.08-4.29-34.61-1.16-8.92-2.8-17.8-3.6-26.75-1.3-14.44-1.93-28.93-3.2-43.38-.3-3.47-1.96-6.82-4.16-10.28-12.23,112.88-24.47,225.75-36.76,339.18-3.48-.51-6.47-.94-9.94-1.45,13.01-121.9,26-243.66,39-365.54,6.07.56,11.63,1.06,17.62,1.61.73,6.28,1.57,13.2,2.35,20.13,1.3,11.57,2.52,23.14,3.83,34.71,1,8.79,2.23,17.56,3.14,26.36,1.43,13.89,2.69,27.79,4.01,41.69,1.35,14.23,2.5,28.48,4.08,42.68,1.38,12.36,3.35,24.65,4.85,36.99.9,7.34,1.37,14.72,2.09,22.08,1.63,16.66,3.3,33.32,4.95,49.98,1.02,10.3,1.81,20.62,3.11,30.88,1.27,10.04,3.14,20.01,4.57,30.03.67,4.71.99,9.48,1.35,14.24.39,5.24.64,10.49.98,16.09Z"/>
      <path d="M499.76,8.23h10.83c9.78,90.09,19.54,179.96,29.29,269.83.37-.03.74-.05,1.12-.08,0-2.25-.03-4.5,0-6.75.33-24.26.72-48.52.98-72.78.38-34.76.91-69.51.94-104.27.03-27.76-.6-55.52-.92-83.28-.02-1.8,0-3.6,0-5.64h9.63v371.04c-9.16,2.22-11.65.44-12.64-8.89-1.96-18.57-4.03-37.12-5.99-55.69-1.71-16.15-3.2-32.33-5.06-48.47-.97-8.43-2.73-16.76-3.8-25.18-.95-7.5-1.34-15.06-2.16-22.58-1.22-11.24-2.7-22.45-3.88-33.7-.58-5.57-.6-11.21-1.13-16.79-1.22-12.74-2.6-25.46-3.91-38.19-1.02-9.96-1.99-19.92-3.08-29.87-1.25-11.4-2.65-22.79-3.92-34.19-1.72-15.32-3.37-30.64-5.08-45.96-.3-2.72-.77-5.43-1.23-8.59Z"/>
      <path d="M366.32,3.13h10.24c.17,6.95.35,13.97.5,20.99.04,1.66-.05,3.33-.05,5,0,112.46,0,224.93,0,337.39v7.2c-3.42.53-6.85,1.07-10.68,1.66V3.13Z"/>
      <path d="M623,374.79h-10.73V4.31c3.11-.49,6.1-.97,10.4-1.65.12,7.87.23,15.11.34,22.35.02,1.5,0,3,0,4.5,0,112.79,0,225.59,0,338.38v6.89Z"/>
      <path d="M576,376.79h-10.73V6.31c3.11-.49,6.1-.97,10.4-1.65.12,7.87.23,15.11.34,22.35.02,1.5,0,3,0,4.5,0,112.96,0,225.92,0,338.88v6.39Z"/>
      <path d="M329.65,372.79h-10.38V2.24h10.38v370.55Z"/>
      <path d="M342.34,2.23h10.41v370.36h-10.41V2.23Z"/>
      <path d="M589.33,3.23h9.42v371.37h-9.42V3.23Z"/>
    </g>
  </g>
</svg>